<?xml version="1.0" encoding="utf-8"?>
<!-- Generator: Adobe Illustrator 24.2.1, SVG Export Plug-In . SVG Version: 6.00 Build 0)  -->
<svg version="1.1" id="Ebene_1" xmlns="http://www.w3.org/2000/svg" xmlns:xlink="http://www.w3.org/1999/xlink" x="0px" y="0px"
	 viewBox="0 0 16 16" style="enable-background:new 0 0 16 16;" xml:space="preserve">
<style type="text/css">
	.st0{fill:#0A2021;}
	.st1{fill:#FFFFFF;}
</style>
<path class="st0" d="M0,0h16v16H0V0z"/>
<g>
	<path class="st1" d="M13,4.2v7.5c0,0.7-0.6,1.2-1.2,1.3H4.3C3.6,13,3,12.4,3,11.8c0-7.6,0-7.5,0-7.5C3,3.6,3.6,3,4.3,3h7.5
		C12.4,3,13,3.6,13,4.2z M7.4,10.6V4.9c0-0.3-0.3-0.6-0.6-0.6H4.9c-0.3,0-0.6,0.3-0.6,0.6v5.7c0,0.3,0.3,0.6,0.6,0.6h1.8
		C7.1,11.2,7.4,10.9,7.4,10.6L7.4,10.6z M11.7,4.9c0-0.3-0.3-0.6-0.6-0.6H9.3C9,4.3,8.7,4.6,8.7,4.9v3.2c0,0.3,0.3,0.6,0.6,0.6h1.8
		c0.3,0,0.6-0.3,0.6-0.6V4.9z"/>
</g>
</svg>
